<svg xmlns="http://www.w3.org/2000/svg" viewBox="0 0 404.16 169.36"><defs><style>.cls-1{stroke:#000;stroke-miterlimit:10;stroke-width:0.25px;}</style></defs><g id="レイヤー_2" data-name="レイヤー 2"><g id="レイヤー_1-2" data-name="レイヤー 1"><path class="cls-1" d="M86.48,138.54H45.27v20.15H91.94l-4.09,40.75H8.15V38.77h80v41H45.27v17.8H86.48Z" transform="translate(-8.03 -34.43)"/><path class="cls-1" d="M102.08,38.77h46.67c35.45,0,51.05,29.74,51.05,78.46,0,50.36-17.42,82.21-51.36,82.21H102.08ZM141,160.33h3.79c11.21,0,14.24-6.8,14.24-42.16,0-34.9-3-40.52-13.64-40.52H141Z" transform="translate(-8.03 -34.43)"/><path class="cls-1" d="M314.34,117.93c0,48.25-13.79,85.73-53.64,85.73-35.6,0-51.21-35.14-51.21-85.26,0-47.08,15.61-83.85,53-83.85C298.88,34.55,314.34,72.73,314.34,117.93Zm-64.09-.46c0,30.91,2.12,46.14,11.82,46.14,9.54,0,11.51-14.29,11.51-46.85,0-29-1.82-41.92-11.66-41.92C252.67,74.84,250.25,87.48,250.25,117.47Z" transform="translate(-8.03 -34.43)"/><path class="cls-1" d="M322.66,167.35,366,79.76H325.84v-41h83.48v37L369.93,158h42.12l-3.79,41.45h-85.6Z" transform="translate(-8.03 -34.43)"/></g></g></svg>